# xmcd
#
# Track frame offsets: 
#        150
#        13912
#        30837
#        53572
#        83945
#        110895
#        132867
#        147200
#        164685
#        175072
#        197905
#        221605
#
# Disc length: 2990 seconds
#
# Revision: 1
# Processed by: cddbd v1.5.2PL0 Copyright (c) Steve Scherf et al.
# Submitted via: ExactAudioCopy v0.95a5
#
DISCID=a80bac0c
DTITLE=14Karat Soul - k-Have Fan Tonight
DYEAR=1900
DGENRE=R&B
TTITLE0=Have Fun Tonight
TTITLE1=The Tracks Of My Tears
TTITLE2=Got To Find A Way
TTITLE3=Kylie
TTITLE4=Nothing To Lose
TTITLE5=I've Been Alone
TTITLE6=When Did You Leave Heaven
TTITLE7=It's Alright
TTITLE8=Rockin' Robin
TTITLE9=Do You Need Me
TTITLE10=Goodbye
TTITLE11=Lion Sleeps Tonight (Inter Lude)
EXTD=
EXTT0=
EXTT1=
EXTT2=
EXTT3=
EXTT4=
EXTT5=
EXTT6=
EXTT7=
EXTT8=
EXTT9=
EXTT10=
EXTT11=
PLAYORDER=
